<!--?xml version="1.0" encoding="utf-8"?-->
<!-- Svg Vector Icons : http://www.onlinewebfonts.com/icon -->

<svg version="1.1" xmlns="http://www.w3.org/2000/svg" xmlns:xlink="http://www.w3.org/1999/xlink" x="0px" y="0px" viewBox="0 0 256 256" enable-background="new 0 0 256 256" xml:space="preserve">
<metadata> Svg Vector Icons : http://www.onlinewebfonts.com/icon </metadata>
<g><g><g><path fill="#ffffff" data-title="Layer 0" xs="0" d="M51.5,10.3c-6.5,1-14.7,3.3-17.1,5c-3.5,2.4-8.8,8.6-12.4,14.3C9,50.7,6.8,68.2,14.4,90.6c3.3,9.6,8.8,24.3,11.9,31.4c7.7,18.1,19.5,34.6,42.3,59.3c14.9,16.1,39.3,35.3,54.7,43.1c11.5,5.9,27.7,12.6,38.5,16c2.2,0.7,4.8,1.6,5.8,2c1,0.5,2.8,1,4,1.2c1.3,0.2,3.9,0.9,5.9,1.5c8.8,2.7,26.8-0.1,39.1-5.8c9.3-4.4,18.5-11.2,22.1-16.5c2.5-3.6,5.6-13.2,6.7-20.8c1.3-8.9,0.9-9.9-5-13.7c-7.1-4.6-16.7-10.1-21-12.1c-5.2-2.4-14.3-7.8-17.3-10.1c-3.9-3.1-9.7-5.8-12.7-5.8c-5,0-8.4,2.8-16.7,13.4c-8.7,11.2-12.4,14.8-16.4,16c-2.5,0.7-8.4-1.2-12.7-4c-1.7-1.2-5.1-3.2-7.5-4.6c-12.7-7.4-26.1-17.5-35.5-26.8c-9.3-9.2-16.3-18.6-26.4-35.2c-10-16.5-10.5-18.9-5.3-25.1c1.9-2.2,9.5-8.6,14.7-12.2c4.7-3.3,9.2-8.2,10.9-11.7c2.2-4.6,1-8.4-5.8-17.6c-0.6-0.8-1.8-2.8-2.6-4.3C84.5,45,73.9,26.2,68.9,17.5c-1.6-2.9-3.5-5.6-4-6.1C63.4,10.1,56.4,9.6,51.5,10.3z"/></g></g></g>
</svg>