<svg height="16" viewBox="0 0 16 16" width="16" xmlns="http://www.w3.org/2000/svg">
<path fill="#ffffff" clip-rule="evenodd" d="m1.33593 14.6667.90133-3.312c-.59391-1.0181-.90594-2.17603-.904-3.35469 0-3.682 2.98467-6.66667 6.66667-6.66667 3.68197 0 6.66667 2.98467 6.66667 6.66667 0 3.68199-2.9847 6.66669-6.66667 6.66669-1.17815.0019-2.33556-.3099-3.35334-.9034zm3.49934-2.3374.48266.282c.81396.4748 1.73973.724 2.682.722 2.94557 0 5.33337-2.3878 5.33337-5.33329 0-2.94552-2.3878-5.33333-5.33337-5.33333-2.94552 0-5.33333 2.38781-5.33333 5.33333 0 .95733.25133 1.87533.72267 2.68269l.28133.4826-.43533 1.6007zm1.02734-7.45996c-.08933-.004-.17933-.004-.26867.00266-.08609.00535-.17088.02736-.248.066-.058.02934-.11133.072-.196.152-.06704.06367-.11028.12019-.15144.174-.00755.00986-.01502.01963-.02256.02934-.24643.32111-.37874.71523-.376 1.12.00625.32627.08145.64752.22067.94266.272.60134.72 1.238 1.31333 1.828.02253.02242.04497.04486.06739.06727.11956.11953.2384.23835.36528.35007.73559.64766 1.61217 1.11466 2.56 1.36396 0 0 .37333.058.37867.058.10632.0058.21216-.0003.31792-.0063.01758-.001.03516-.002.05274-.003.19416-.0098.38366-.0622.55536-.1533.0872-.0452.1724-.0941.2553-.1467.0282-.0194.056-.0394.0833-.06.0791-.0571.1528-.1214.22-.192.0572-.0592.1044-.1272.14-.2013.052-.1087.104-.31603.1254-.4887.0153-.132.0113-.204.0086-.24866-.002-.07134-.0613-.14534-.1266-.17667l-.388-.174s-.5794-.25267-.93336-.41467c-.03733-.01666-.078-.024-.118-.02666-.09228-.00948-.18416.02139-.252.08466v-.00133c-.004 0-.048.038-.53066.62267-.05648.07577-.15309.10999-.24467.08666-.04333-.01133-.086-.02666-.12733-.044-.05305-.02267-.08386-.03629-.11411-.04965-.01688-.00746-.03359-.01484-.05389-.02368l-.00334-.00133c-.38133-.16667-.73466-.39134-1.04666-.66667-.06208-.05469-.12088-.11229-.17963-.16984-.02075-.02033-.04149-.04065-.06237-.06083-.28-.272-.50934-.56066-.68-.84533l-.03934-.06333c-.028-.04534-.05866-.09934-.068-.13667-.02533-.098.04067-.17667.04067-.17667s.162-.17733.23733-.274c.06271-.07957.12123-.16234.17534-.248.07866-.12666.10333-.25666.062-.358-.18667-.45533-.38-.90933-.57867-1.36-.03933-.08933-.156-.154-.262-.166-.036-.004-.072-.008-.108-.01066z" fill-rule="evenodd"/>
</svg>
